<?xml version="1.0" encoding="UTF-8"?>
<svg xmlns="http://www.w3.org/2000/svg" id="Layer_1" data-name="Layer 1" viewBox="0 0 24 24">
  <path d="M20.949,2.007c-1.881-1.221-3.938-1.337-5.792-.332-1.428,.776-2.55,2.129-3.158,3.696-.607-1.567-1.729-2.92-3.158-3.696-1.854-1.006-3.91-.889-5.791,.332C1.13,3.252-.038,5.312,0,7.382c.086,4.56,4.806,10.504,9.156,14.097,.824,.681,1.833,1.021,2.843,1.021,1.009,0,2.019-.34,2.843-1.021,4.35-3.593,9.07-9.538,9.156-14.097,.039-2.07-1.129-4.13-3.05-5.375Zm-6.743,18.702c-1.279,1.056-3.135,1.055-4.413,0C5.615,17.256,1.081,11.608,1.001,7.364c-.033-1.728,.961-3.459,2.594-4.518,.864-.561,1.77-.842,2.663-.842,.719,0,1.431,.183,2.107,.55,1.846,1.003,3.135,3.243,3.135,5.446,0,.276,.224,.5,.5,.5s.5-.224,.5-.5c0-2.204,1.29-4.443,3.135-5.446,1.516-.822,3.209-.72,4.77,.292,1.632,1.059,2.626,2.79,2.594,4.518-.08,4.243-4.614,9.892-8.792,13.345Z"/>
</svg>
