<?xml version="1.0" encoding="UTF-8"?>
<svg width="142px" height="25px" viewBox="0 0 142 25" version="1.1" xmlns="http://www.w3.org/2000/svg" xmlns:xlink="http://www.w3.org/1999/xlink">
    <title>logo</title>
    <g id="Design" stroke="none" stroke-width="1" fill="none" fill-rule="evenodd">
        <g id="Homepage" transform="translate(-120.000000, -66.000000)" fill="#100D0A" fill-rule="nonzero">
            <g id="primary-nav" transform="translate(0.000000, 45.000000)">
                <g id="hero-heading-copy-12" transform="translate(120.000000, 21.000000)">
                    <path d="M91.7395742,8.23490814 C92.789443,8.23490814 93.7900992,8.46456693 94.7415427,8.92388451 C95.6929863,9.3832021 96.4694517,10.0393701 97.070939,10.8923885 C97.6724264,11.7454068 97.97317,12.7515311 97.97317,13.9107612 L97.97317,20.8005249 C97.97317,21.5004374 98.1153397,22.2550306 98.3996792,23.0643045 C98.6840187,23.8735783 99.121464,24.2782152 99.7120152,24.2782152 L99.7120152,24.6391076 L95.9390493,24.6391076 C95.4797317,24.6391076 95.0860309,24.5844269 94.7579469,24.4750656 C94.4298629,24.3657043 94.1619277,24.2454068 93.9541411,24.1141732 C93.7463546,23.9829396 93.5987168,23.8626422 93.5112278,23.7532808 L93.3799942,23.6220472 C92.6800817,24.0376203 92.0239137,24.3711724 91.4114902,24.6227034 C90.7990668,24.8742345 90.0444736,25 89.1477107,25 C86.9823564,25 85.30366,24.5953631 84.1116215,23.7860892 C82.919583,22.9768154 82.3235637,21.9269466 82.3235637,20.6364829 C82.3235637,19.4991251 82.67352,18.5914261 83.3734325,17.9133858 C84.073345,17.2353456 84.9372995,16.694007 85.965296,16.2893701 C86.9932925,15.8847332 88.0322251,15.5293088 89.0820939,15.2230971 C90.2631963,14.8950131 91.2747886,14.5395888 92.1168708,14.1568241 C92.958953,13.7740595 93.3799942,13.243657 93.3799942,12.5656168 L93.3799942,11.4501312 C93.3799942,9.67847769 92.6472733,8.79265092 91.1818314,8.79265092 L90.820939,8.82545932 C89.6835812,9.02230971 88.6993293,9.4816273 87.8681831,10.2034121 C88.3931175,10.2252843 88.8305628,10.4111986 89.1805191,10.7611549 C89.5304754,11.1111111 89.7054535,11.5376203 89.7054535,12.0406824 C89.7054535,12.5656168 89.5250073,13.0085302 89.1641149,13.3694226 C88.8032225,13.730315 88.3712453,13.9107612 87.8681831,13.9107612 C87.3432488,13.9107612 86.9003354,13.730315 86.539443,13.3694226 C86.1785506,13.0085302 85.9981044,12.5656168 85.9981044,12.0406824 C85.9981044,11.5594926 86.1730825,11.1329834 86.5230388,10.7611549 C87.8135025,9.07699038 89.5523476,8.23490814 91.7395742,8.23490814 Z M32.0392243,7.90682415 C34.073345,7.90682415 35.8121901,8.73797025 37.2557597,10.4002625 C38.6993293,12.0625547 39.421114,14.0748031 39.421114,16.4370079 C39.421114,18.7992126 38.6993293,20.8114611 37.2557597,22.4737533 C35.8121901,24.1360455 34.073345,24.9671916 32.0392243,24.9671916 C30.0051035,24.9671916 28.2662584,24.1360455 26.8226888,22.4737533 C25.3791193,20.8114611 24.6573345,18.7992126 24.6573345,16.4370079 C24.6573345,14.0748031 25.3791193,12.0625547 26.8226888,10.4002625 C28.2662584,8.73797025 30.0051035,7.90682415 32.0392243,7.90682415 Z M75.5139983,7.90682415 C76.7388451,7.90682415 77.8597988,8.13648294 78.8768591,8.59580052 C79.8939195,9.05511811 80.7305337,9.71675416 81.3867017,10.5807087 C82.0428696,11.4446632 82.3709536,12.5437445 82.3709536,13.8779528 C82.3709536,15.627734 81.3867017,16.7650919 79.4181977,17.2900262 C78.3027122,17.596238 76.8482065,17.7493438 75.0546807,17.7493438 L73.3486439,17.7493438 C73.9173228,20.7677165 75.328084,22.2769029 77.5809274,22.2769029 C78.5433071,22.2769029 79.3416448,22.0964567 79.9759405,21.7355643 C80.6102362,21.3746719 81.1242345,20.9645669 81.5179353,20.5052493 C81.8678915,20.1115486 82.1303587,19.73972 82.3053368,19.3897638 L82.6334208,18.7335958 L82.3381452,19.6850394 C82.1412948,20.3193351 81.7913386,21.0411199 81.2882765,21.8503937 C80.7852143,22.6596675 80.0688976,23.3814523 79.1393263,24.015748 C78.209755,24.6500437 77.0013123,24.9671916 75.5139983,24.9671916 C73.4798775,24.9671916 71.7410324,24.1305774 70.2974628,22.4573491 C68.8538933,20.7841207 68.1321085,18.7773403 68.1321085,16.4370079 C68.1321085,14.0748031 68.8538933,12.0625547 70.2974628,10.4002625 C71.7410324,8.73797025 73.4798775,7.90682415 75.5139983,7.90682415 Z M134.871683,7.90682415 C136.09653,7.90682415 137.217483,8.13648294 138.234544,8.59580052 C139.251604,9.05511811 140.088218,9.71675416 140.744386,10.5807087 C141.400554,11.4446632 141.728638,12.5437445 141.728638,13.8779528 C141.728638,15.627734 140.744386,16.7650919 138.775882,17.2900262 C137.660397,17.596238 136.205891,17.7493438 134.412365,17.7493438 L132.706328,17.7493438 C133.275007,20.7677165 134.685768,22.2769029 136.938612,22.2769029 C137.900992,22.2769029 138.699329,22.0964567 139.333625,21.7355643 C139.967921,21.3746719 140.481919,20.9645669 140.87562,20.5052493 C141.225576,20.1115486 141.488043,19.73972 141.663021,19.3897638 L141.991105,18.7335958 L141.69583,19.6850394 C141.498979,20.3193351 141.149023,21.0411199 140.645961,21.8503937 C140.142899,22.6596675 139.426582,23.3814523 138.497011,24.015748 C137.567439,24.6500437 136.358997,24.9671916 134.871683,24.9671916 C132.837562,24.9671916 131.098717,24.1305774 129.655147,22.4573491 C128.211578,20.7841207 127.489793,18.7773403 127.489793,16.4370079 C127.489793,14.0748031 128.211578,12.0625547 129.655147,10.4002625 C131.098717,8.73797025 132.837562,7.90682415 134.871683,7.90682415 Z M32.0392243,8.16929134 C31.3174395,8.16929134 30.7706328,8.54111986 30.3988043,9.2847769 C30.0269758,10.0284339 29.7754447,11.023622 29.6442111,12.2703412 C29.5129775,13.5170604 29.4473607,14.9059493 29.4473607,16.4370079 C29.4473607,17.9680665 29.5129775,19.3569554 29.6442111,20.6036745 C29.7754447,21.8503937 30.0269758,22.8455818 30.3988043,23.5892388 C30.7706328,24.3328959 31.3174395,24.7047244 32.0392243,24.7047244 C32.761009,24.7047244 33.3078157,24.3328959 33.6796442,23.5892388 C34.0514727,22.8455818 34.3030038,21.8503937 34.4342374,20.6036745 C34.565471,19.3569554 34.6310878,17.9680665 34.6310878,16.4370079 C34.6310878,14.9059493 34.565471,13.5170604 34.4342374,12.2703412 C34.3030038,11.023622 34.0514727,10.0284339 33.6796442,9.2847769 C33.3078157,8.54111986 32.761009,8.16929134 32.0392243,8.16929134 Z M10.1706037,1.64041995 L10.1706037,1.96850394 C9.55818023,1.96850394 8.96762905,2.25831146 8.39895013,2.83792651 C7.83027122,3.41754156 7.54593176,4.26509186 7.54593176,5.38057743 L7.54593176,12.992126 L16.4370079,12.992126 L16.4370079,5.38057743 C16.4370079,4.26509186 16.1526684,3.41754156 15.5839895,2.83792651 C15.0153106,2.25831146 14.4247594,1.96850394 13.812336,1.96850394 L13.812336,1.64041995 L23.9829396,1.64041995 L23.9829396,1.96850394 C23.3705162,1.96850394 22.7909011,2.25831146 22.2440945,2.83792651 C21.6972878,3.41754156 21.4020122,4.26509186 21.3582677,5.38057743 L21.3582677,20.8989501 C21.4020122,22.0144357 21.6972878,22.861986 22.2440945,23.441601 C22.7909011,24.0212161 23.3705162,24.3110236 23.9829396,24.3110236 L23.9829396,24.6391076 L13.812336,24.6391076 L13.812336,24.3110236 C14.4247594,24.3110236 15.0153106,24.0212161 15.5839895,23.441601 C16.1526684,22.861986 16.4370079,22.0144357 16.4370079,20.8989501 L16.4370079,13.32021 L7.54593176,13.32021 L7.54593176,20.8989501 C7.54593176,22.0144357 7.83027122,22.861986 8.39895013,23.441601 C8.96762905,24.0212161 9.55818023,24.3110236 10.1706037,24.3110236 L10.1706037,24.6391076 L0,24.6391076 L0,24.3110236 C0.612423447,24.3110236 1.19750656,24.0212161 1.75524934,23.441601 C2.31299213,22.861986 2.60279965,22.0144357 2.62467192,20.8989501 L2.62467192,5.38057743 C2.60279965,4.26509186 2.31299213,3.41754156 1.75524934,2.83792651 C1.19750656,2.25831146 0.612423447,1.96850394 0,1.96850394 L0,1.64041995 L10.1706037,1.64041995 Z M59.7805483,8.23490814 C60.8085448,8.23490814 61.8037329,8.44816273 62.7661126,8.87467192 C63.7284923,9.3011811 64.5213619,9.90813648 65.1447215,10.6955381 C65.7680811,11.4829396 66.0797609,12.3906387 66.0797609,13.4186352 L66.0797609,20.7677165 C66.0797609,21.467629 66.2328667,22.2276903 66.5390784,23.0479003 C66.8452902,23.8681102 67.2827355,24.2782152 67.8514144,24.2782152 L67.8514144,24.6391076 L61.4537766,24.6391076 L61.4537766,11.5813648 C61.4100321,9.59098863 60.7648002,8.59580052 59.5180811,8.59580052 C57.7245553,8.68328959 56.2809857,9.27384077 55.1873724,10.3674541 C55.974774,11.264217 56.3684748,12.2812773 56.3684748,13.4186352 L56.3684748,20.7677165 C56.3684748,21.467629 56.5215806,22.2276903 56.8277924,23.0479003 C57.1340041,23.8681102 57.5823855,24.2782152 58.1729367,24.2782152 L58.1729367,24.6391076 L51.7752989,24.6391076 L51.7752989,11.5813648 C51.7315544,9.59098863 51.0863225,8.59580052 49.8396034,8.59580052 C48.658501,8.63954506 47.6086323,8.92388451 46.6899971,9.4488189 L46.6899971,20.7677165 C46.6899971,21.467629 46.8431029,22.2276903 47.1493147,23.0479003 C47.4555264,23.8681102 47.8929717,24.2782152 48.4616506,24.2782152 L48.4616506,24.6391076 L40.2923593,24.6391076 L40.2923593,24.2782152 C40.8610382,24.2782152 41.2984835,23.8681102 41.6046952,23.0479003 C41.910907,22.2276903 42.0640128,21.467629 42.0640128,20.7677165 L42.0640128,13.8779528 C42.0640128,13.4186352 41.9874599,13.0358705 41.834354,12.7296588 C41.6812482,12.4234471 41.4898659,12.1883202 41.2602071,12.0242782 C41.0305483,11.8602362 40.8008895,11.7454068 40.5712307,11.67979 C40.3989866,11.6305774 40.2421214,11.593668 40.1006352,11.5690617 L39.7346165,11.515748 L46.6899971,8.23490814 L46.6899971,9.05511811 C47.6961213,8.50831146 48.8334791,8.23490814 50.1020706,8.23490814 C52.02683,8.23490814 53.6344415,8.85826772 54.9249052,10.1049869 C56.2153689,8.85826772 57.8339166,8.23490814 59.7805483,8.23490814 Z M108.030767,0 L108.030767,8.49737533 C108.818169,8.16929134 109.638379,8.00524934 110.491397,8.00524934 C112.503645,8.00524934 114.220618,8.81999125 115.642316,10.4494751 C117.064013,12.0789589 117.774861,14.0419948 117.774861,16.3385827 C117.774861,18.6132983 117.064013,20.5653981 115.642316,22.1948819 C114.220618,23.8243657 112.503645,24.6391076 110.491397,24.6391076 C109.638379,24.6391076 108.818169,24.4750656 108.030767,24.1469816 L108.030767,24.6391076 L101.600321,24.6391076 L101.600321,24.2782152 C102.190872,24.2782152 102.639253,23.8681102 102.945465,23.0479003 C103.251677,22.2276903 103.404783,21.467629 103.404783,20.7677165 L103.404783,5.67585302 C103.404783,5.19466317 103.322762,4.80643045 103.15872,4.51115486 C102.994678,4.21587927 102.797827,3.98075241 102.568169,3.80577428 C102.33851,3.63079615 102.108851,3.51049869 101.879192,3.44488189 C101.706948,3.39566929 101.550083,3.35875984 101.408597,3.33415354 L101.042578,3.2808399 L108.030767,0 Z M125.404637,1.44356955 L125.404637,20.9645669 C125.404637,21.6207349 125.546807,22.3425197 125.831146,23.1299213 C126.115486,23.9173228 126.531059,24.3110236 127.077865,24.3110236 L127.077865,24.6391076 L119.302275,24.6391076 L119.302275,24.3110236 C119.849081,24.3110236 120.270122,23.9173228 120.565398,23.1299213 C120.860674,22.3425197 121.008311,21.6207349 121.008311,20.9645669 L121.008311,6.79133858 C121.008311,6.35389326 120.931759,5.99300087 120.778653,5.70866142 C120.625547,5.42432196 120.439633,5.2055993 120.22091,5.05249344 C120.002187,4.89938758 119.783465,4.78455818 119.564742,4.70800525 C119.346019,4.63145232 119.160105,4.59317585 119.006999,4.59317585 L118.77734,4.56036745 L125.404637,1.44356955 Z M93.3799942,13.0249344 C93.3799942,13.571741 93.1284631,14.0748031 92.625401,14.5341207 C92.1223389,14.9934383 91.5208516,15.463692 90.820939,15.9448819 C90.2522601,16.3167104 89.6999854,16.7213473 89.1641149,17.1587927 C88.6282444,17.596238 88.185331,18.0774278 87.8353747,18.6023622 C87.4854185,19.1272966 87.3104404,19.7287839 87.3104404,20.4068241 C87.3104404,21.6754156 87.5893118,22.6377953 88.1470545,23.2939633 C88.7047973,23.9501312 89.4101779,24.2782152 90.2631963,24.2782152 C90.984981,24.2782152 91.6848936,24.097769 92.3629338,23.7368766 C93.040974,23.3759843 93.3799942,22.7580927 93.3799942,21.8832021 L93.3799942,13.0249344 Z M109.310295,8.36614173 C108.872849,8.36614173 108.44634,8.50831146 108.030767,8.79265092 L108.030767,23.8845144 C108.44634,24.1469816 108.872849,24.2782152 109.310295,24.2782152 C110.403908,24.2782152 111.344415,23.5017498 112.131817,21.9488189 C112.919218,20.395888 113.312919,18.5258093 113.312919,16.3385827 C113.312919,14.1294838 112.919218,12.2484689 112.131817,10.6955381 C111.344415,9.14260717 110.403908,8.36614173 109.310295,8.36614173 Z M75.5139983,8.13648294 C74.7922135,8.13648294 74.2454068,8.51924759 73.8735783,9.2847769 C73.3048994,10.4658793 73.0205599,12.0844269 73.0205599,14.1404199 C73.0205599,15.540245 73.1189851,16.6994751 73.3158355,17.6181102 C75.2624672,17.6181102 76.6294838,16.9947507 77.4168854,15.7480315 C77.7887139,15.1574803 77.9746282,14.3263342 77.9746282,13.2545932 C77.9746282,12.9046369 77.9527559,12.5328084 77.9090114,12.1391076 C77.7559055,10.9142607 77.4989064,9.94094488 77.138014,9.2191601 C76.7771216,8.49737533 76.235783,8.13648294 75.5139983,8.13648294 Z M134.871683,8.13648294 C134.149898,8.13648294 133.603091,8.51924759 133.231263,9.2847769 C132.662584,10.4658793 132.378244,12.0844269 132.378244,14.1404199 C132.378244,15.540245 132.47667,16.6994751 132.67352,17.6181102 C134.620152,17.6181102 135.987168,16.9947507 136.77457,15.7480315 C137.146398,15.1574803 137.332313,14.3263342 137.332313,13.2545932 C137.332313,12.9046369 137.31044,12.5328084 137.266696,12.1391076 C137.11359,10.9142607 136.856591,9.94094488 136.495698,9.2191601 C136.134806,8.49737533 135.593467,8.13648294 134.871683,8.13648294 Z" id="Shape"></path>
                </g>
            </g>
        </g>
    </g>
</svg>