<?xml version="1.0" encoding="UTF-8"?>
<svg width="20px" height="20px" viewBox="0 0 20 20" version="1.1" xmlns="http://www.w3.org/2000/svg" xmlns:xlink="http://www.w3.org/1999/xlink">
    <title>Combined Shape</title>
    <g id="Design" stroke="none" stroke-width="1" fill="none" fill-rule="evenodd">
        <g id="Blog" transform="translate(-1541.000000, -133.000000)" fill="#100D0A" fill-rule="nonzero">
            <path d="M1548.80651,133 C1553.11793,133 1556.61302,136.495093 1556.61302,140.806509 C1556.61302,142.731959 1555.91594,144.494597 1554.76038,145.855822 L1560.07995,151.175892 L1558.89709,152.358757 L1553.54683,147.009511 C1552.23259,148.015379 1550.58934,148.613019 1548.80651,148.613019 C1544.49509,148.613019 1541,145.117925 1541,140.806509 C1541,136.495093 1544.49509,133 1548.80651,133 Z M1548.80651,134.672823 C1545.41897,134.672823 1542.67282,137.418968 1542.67282,140.806509 C1542.67282,144.19405 1545.41897,146.940195 1548.80651,146.940195 C1552.19405,146.940195 1554.9402,144.19405 1554.9402,140.806509 C1554.9402,137.418968 1552.19405,134.672823 1548.80651,134.672823 Z" id="Combined-Shape"></path>
        </g>
    </g>
</svg>